<svg id="svg-burger" viewBox="0 0 26 27" fill="currentColor" xmlns="http://www.w3.org/2000/svg">
<mask id="mask0_4023_3" style="mask-type:alpha" maskUnits="userSpaceOnUse" x="0" y="0" width="26" height="27">
<rect y="0.5" width="26" height="26" fill="#D9D9D9"/>
</mask>
<g mask="url(#mask0_4023_3)">
<path d="M1 5.94444C1 5.42284 1.44772 5 2 5H24C24.5523 5 25 5.42284 25 5.94444C25 6.46605 24.5523 6.88889 24 6.88889H2C1.44772 6.88889 1 6.46605 1 5.94444Z"/>
<path d="M1 13.5C1 12.9784 1.44772 12.5556 2 12.5556H24C24.5523 12.5556 25 12.9784 25 13.5C25 14.0216 24.5523 14.4444 24 14.4444H2C1.44772 14.4444 1 14.0216 1 13.5Z"/>
<path d="M1 21.0556C1 20.534 1.44772 20.1111 2 20.1111H24C24.5523 20.1111 25 20.534 25 21.0556C25 21.5772 24.5523 22 24 22H2C1.44772 22 1 21.5772 1 21.0556Z"/>
</g>
</svg>
