<svg width="66" height="66" viewBox="0 0 66 66" fill="none" xmlns="http://www.w3.org/2000/svg">
<g clip-path="url(#clip0_131_856)">
<path d="M33.0137 66.0275C51.2467 66.0275 66.0275 51.2467 66.0275 33.0137C66.0275 14.7808 51.2467 0 33.0137 0C14.7808 0 0 14.7808 0 33.0137C0 51.2467 14.7808 66.0275 33.0137 66.0275Z" fill="url(#paint0_linear_131_856)"/>
<path fill-rule="evenodd" clip-rule="evenodd" d="M14.9262 32.6563C24.5472 28.4781 30.952 25.7017 34.1682 24.3548C43.3218 20.5339 45.246 19.8742 46.483 19.8467C46.7579 19.8467 47.3627 19.9017 47.775 20.2315C48.1048 20.5064 48.1873 20.8638 48.2423 21.1386C48.2973 21.4135 48.3522 21.9908 48.2973 22.4306C47.8025 27.6534 45.6584 40.3256 44.5588 46.1532C44.0915 48.6272 43.1844 49.4518 42.3048 49.5343C40.3806 49.6992 38.9237 48.2698 37.0819 47.0603C34.1681 45.1636 32.5463 43.9816 29.715 42.1124C26.4439 39.9683 28.5605 38.7863 30.4297 36.8621C30.9245 36.3673 39.3635 28.6705 39.5284 27.9833C39.5559 27.9008 39.5559 27.571 39.3635 27.406C39.1711 27.2411 38.8962 27.2961 38.6763 27.3511C38.3739 27.406 33.7558 30.4847 24.7671 36.5597C23.4476 37.4668 22.2656 37.9067 21.1936 37.8792C20.0115 37.8517 17.7575 37.2194 16.0532 36.6697C13.9916 36.0099 12.3422 35.6526 12.4797 34.4981C12.5622 33.8933 13.3868 33.2886 14.9262 32.6563Z" fill="white"/>
</g>
<defs>
<linearGradient id="paint0_linear_131_856" x1="32.9863" y1="0" x2="32.9863" y2="65.5052" gradientUnits="userSpaceOnUse">
<stop stop-color="#2AABEE"/>
<stop offset="1" stop-color="#229ED9"/>
</linearGradient>
<clipPath id="clip0_131_856">
<rect width="66" height="66" fill="white"/>
</clipPath>
</defs>
</svg>
