<svg id="svg-telegram" viewBox="0 0 25 24" fill="currentColor" xmlns="http://www.w3.org/2000/svg">
<path fill-rule="evenodd" clip-rule="evenodd" d="M2.96725 12.1945C8.87161 9.52165 12.8022 7.74557 14.776 6.88392C20.3936 4.43962 21.5744 4.01758 22.3336 4C22.5023 4 22.8734 4.03517 23.1264 4.24619C23.3289 4.42204 23.3795 4.65064 23.4132 4.82649C23.447 5.00234 23.4807 5.37162 23.447 5.65298C23.1433 8.9941 21.8275 17.1007 21.1527 20.8287C20.8659 22.4113 20.3092 22.9389 19.7694 22.9916C18.5885 23.0972 17.6944 22.1827 16.5642 21.409C14.776 20.1957 13.7807 19.4395 12.0431 18.2437C10.0356 16.8721 11.3346 16.116 12.4817 14.885C12.7854 14.5685 17.9643 9.64474 18.0656 9.20512C18.0824 9.15236 18.0824 8.94134 17.9643 8.83584C17.8462 8.73033 17.6776 8.7655 17.5426 8.80067C17.357 8.83584 14.5229 10.8053 9.00657 14.6916C8.19683 15.2719 7.47144 15.5533 6.81352 15.5357C6.08813 15.5181 4.70482 15.1136 3.6589 14.7619C2.39368 14.3399 1.3815 14.1113 1.46585 13.3727C1.51646 12.9859 2.02255 12.599 2.96725 12.1945Z"/>
</svg>
