<svg id="svg-whatsapp" viewBox="0 0 24 24" fill="currentColor" xmlns="http://www.w3.org/2000/svg">
<path d="M20.125 4.52382C19.0936 3.48198 17.8651 2.65594 16.5111 2.09387C15.1571 1.53181 13.7048 1.24496 12.2387 1.25007C6.09625 1.25007 1.09 6.25632 1.09 12.3988C1.09 14.3676 1.6075 16.2801 2.575 17.9676L1 23.7501L6.90625 22.1976C8.5375 23.0863 10.3713 23.5588 12.2387 23.5588C18.3813 23.5588 23.3875 18.5526 23.3875 12.4101C23.3875 9.42882 22.2288 6.62757 20.125 4.52382ZM12.2387 21.6688C10.5737 21.6688 8.9425 21.2188 7.51375 20.3751L7.17625 20.1726L3.66625 21.0951L4.6 17.6751L4.375 17.3263C3.44996 15.8492 2.95878 14.1417 2.9575 12.3988C2.9575 7.29132 7.12 3.12882 12.2275 3.12882C14.7025 3.12882 17.0312 4.09632 18.775 5.85132C19.6384 6.71078 20.3227 7.73306 20.7881 8.85892C21.2535 9.98478 21.4908 11.1918 21.4862 12.4101C21.5088 17.5176 17.3463 21.6688 12.2387 21.6688ZM17.3237 14.7388C17.0425 14.6038 15.67 13.9288 15.4225 13.8276C15.1638 13.7376 14.9838 13.6926 14.7925 13.9626C14.6013 14.2438 14.0725 14.8738 13.915 15.0538C13.7575 15.2451 13.5887 15.2676 13.3075 15.1213C13.0262 14.9863 12.1262 14.6826 11.0687 13.7376C10.2362 12.9951 9.685 12.0838 9.51625 11.8026C9.35875 11.5213 9.49375 11.3751 9.64 11.2288C9.76375 11.1051 9.92125 10.9026 10.0563 10.7451C10.1913 10.5876 10.2475 10.4638 10.3375 10.2838C10.4275 10.0926 10.3825 9.93507 10.315 9.80007C10.2475 9.66507 9.685 8.29257 9.46 7.73007C9.235 7.19007 8.99875 7.25757 8.83 7.24632H8.29C8.09875 7.24632 7.80625 7.31382 7.5475 7.59507C7.3 7.87632 6.58 8.55132 6.58 9.92382C6.58 11.2891 7.57079 12.6099 7.71406 12.8009L7.71625 12.8038C7.85125 12.9951 9.685 15.8076 12.475 17.0113C13.1388 17.3038 13.6562 17.4726 14.0612 17.5963C14.725 17.8101 15.3325 17.7763 15.8163 17.7088C16.3563 17.6301 17.47 17.0338 17.695 16.3813C17.9312 15.7288 17.9313 15.1776 17.8525 15.0538C17.7738 14.9301 17.605 14.8738 17.3237 14.7388Z"/>
</svg>
