<svg width="66" height="66" viewBox="0 0 66 66" fill="none" xmlns="http://www.w3.org/2000/svg">
<mask id="mask0_131_864" style="mask-type:alpha" maskUnits="userSpaceOnUse" x="0" y="0" width="67" height="67">
<path d="M33.0137 66.0275C51.2467 66.0275 66.0275 51.2467 66.0275 33.0137C66.0275 14.7808 51.2467 0 33.0137 0C14.7808 0 0 14.7808 0 33.0137C0 51.2467 14.7808 66.0275 33.0137 66.0275Z" fill="url(#paint0_linear_131_864)"/>
</mask>
<g mask="url(#mask0_131_864)">
<path d="M78.0554 10.3067C76.9838 6.24766 73.837 3.05786 69.8332 1.97131C62.5837 1.73925e-05 33.5003 1.53273e-10 33.4998 0C33.4998 0 33.4999 0 33.4998 0C33.4994 1.31464e-10 4.41637 1.61092e-05 -2.83341 1.97131C-6.83725 3.05786 -9.9837 6.24766 -11.0555 10.3067C-12.9999 17.6562 -13 32.9992 -13 33C-13 33 -13 32.9999 -13 33C-13 33.0008 -12.9999 48.3439 -11.0555 55.6934C-9.9837 59.7524 -6.83725 62.9422 -2.83341 64.0286C4.41622 65.9999 33.4982 66 33.4998 66C33.4999 66 33.4998 66 33.4998 66C33.5015 66 62.5838 65.9999 69.8332 64.0286C73.837 62.9422 76.9838 59.7524 78.0554 55.6934C79.8553 48.8907 79.9892 35.2396 79.9992 33.2453C80 33.0755 80 32.9245 79.9991 32.7547C79.9882 30.7604 79.848 17.1094 78.0554 10.3067Z" fill="#FF0000"/>
<path d="M24.1006 47.3886L48.2033 33.4739L24.1006 19.5591V47.3886Z" fill="white"/>
</g>
<defs>
<linearGradient id="paint0_linear_131_864" x1="32.9863" y1="0" x2="32.9863" y2="65.5052" gradientUnits="userSpaceOnUse">
<stop stop-color="#FF0000"/>
<stop offset="1" stop-color="#FF0000"/>
</linearGradient>
</defs>
</svg>
