<svg width="51" height="24" viewBox="0 0 51 24" fill="none" xmlns="http://www.w3.org/2000/svg">
<mask id="mask0_4004_16" style="mask-type:alpha" maskUnits="userSpaceOnUse" x="0" y="0" width="51" height="24">
<rect width="51" height="24" fill="white"/>
</mask>
<g mask="url(#mask0_4004_16)">
<path d="M37.7265 4.48184C37.5668 4.33307 37.4388 4.15367 37.3499 3.95434C37.2611 3.755 37.2134 3.53982 37.2095 3.32164C37.2057 3.10345 37.2458 2.88672 37.3275 2.68437C37.4093 2.48203 37.5309 2.29823 37.6852 2.14392C37.8395 1.98961 38.0233 1.86797 38.2257 1.78624C38.428 1.70451 38.6447 1.66437 38.8629 1.66822C39.0811 1.67207 39.2963 1.71983 39.4956 1.80864C39.695 1.89746 39.8744 2.02551 40.0231 2.18517L48.6898 10.8518C48.9941 11.1565 49.165 11.5695 49.165 12.0002C49.165 12.4308 48.9941 12.8438 48.6898 13.1485L40.0231 21.8152C39.8744 21.9748 39.695 22.1029 39.4956 22.1917C39.2963 22.2805 39.0811 22.3283 38.8629 22.3321C38.6447 22.336 38.428 22.2958 38.2257 22.2141C38.0233 22.1324 37.8395 22.0107 37.6852 21.8564C37.5309 21.7021 37.4093 21.5183 37.3275 21.316C37.2458 21.1136 37.2057 20.8969 37.2095 20.6787C37.2134 20.4605 37.2611 20.2453 37.3499 20.046C37.4388 19.8467 37.5668 19.6673 37.7265 19.5185L43.6198 13.6252L3.6248 13.6252C3.19382 13.6252 2.7805 13.454 2.47575 13.1492C2.17101 12.8445 1.9998 12.4311 1.9998 12.0002C1.9998 11.5692 2.17101 11.1559 2.47575 10.8511C2.7805 10.5464 3.19382 10.3752 3.6248 10.3752L43.6198 10.3752L37.7265 4.48184Z" fill="#E90888"/>
</g>
</svg>
