<svg id="svg-phone" viewBox="0 0 25 24" fill="currentColor" xmlns="http://www.w3.org/2000/svg">
<path d="M16.6496 14.1891L16.1187 14.6954C16.1187 14.6954 14.8552 15.898 11.4078 12.6144C7.96029 9.33068 9.22378 8.12809 9.22378 8.12809L9.55745 7.80844C10.3823 7.02384 10.4604 5.76313 9.74061 4.84218L8.27062 2.96116C7.3793 1.82115 5.65847 1.67027 4.63765 2.64263L2.80599 4.38617C2.30083 4.869 1.9625 5.49265 2.00333 6.1856C2.10833 7.95932 2.94599 11.7739 7.61729 16.2244C12.5721 20.9431 17.2212 21.1309 19.1217 20.961C19.7237 20.9074 20.2464 20.6145 20.6675 20.2122L22.3242 18.6341C23.4442 17.5689 23.1292 15.7416 21.6965 14.9961L19.4682 13.8348C18.5279 13.3464 17.3846 13.4895 16.6496 14.1891Z"/>
</svg>
