<svg width="66" height="66" viewBox="0 0 66 66" fill="none" xmlns="http://www.w3.org/2000/svg">
<g clip-path="url(#clip0_131_859)">
<path d="M33.0137 66.0275C51.2467 66.0275 66.0275 51.2467 66.0275 33.0137C66.0275 14.7808 51.2467 0 33.0137 0C14.7808 0 0 14.7808 0 33.0137C0 51.2467 14.7808 66.0275 33.0137 66.0275Z" fill="#0077FF"/>
<path d="M34.6969 47C21.7138 47 14.3086 37.991 14 23H20.5034C20.7171 34.003 25.5114 38.6637 29.3091 39.6246V23H35.433V32.4895C39.1831 32.0811 43.1227 27.7568 44.4519 23H50.5757C49.555 28.8619 45.2827 33.1862 42.2446 34.964C45.2827 36.4054 50.1487 40.1772 52 47H45.259C43.8111 42.4354 40.2037 38.9039 35.433 38.4234V47H34.6969Z" fill="white"/>
</g>
<defs>
<clipPath id="clip0_131_859">
<rect width="66" height="66" fill="white"/>
</clipPath>
</defs>
</svg>
