<svg width="160" height="32" viewBox="0 0 160 32" fill="none" xmlns="http://www.w3.org/2000/svg">
<path d="M117.086 21.504C118.068 21.504 118.942 21.2907 119.71 20.864C120.478 20.4373 121.076 19.8187 121.502 19.008C121.95 18.1973 122.174 17.248 122.174 16.16C122.174 15.0507 121.95 14.1013 121.502 13.312C121.076 12.5013 120.478 11.8827 119.71 11.456C118.942 11.0293 118.078 10.816 117.118 10.816C116.137 10.816 115.262 11.0293 114.494 11.456C113.748 11.8827 113.15 12.5013 112.702 13.312C112.254 14.1013 112.03 15.0507 112.03 16.16C112.03 17.248 112.254 18.1973 112.702 19.008C113.15 19.8187 113.748 20.4373 114.494 20.864C115.262 21.2907 116.126 21.504 117.086 21.504Z" fill="#E90888"/>
<path d="M9.024 21.504C9.984 21.504 10.8373 21.2907 11.584 20.864C12.352 20.4373 12.96 19.8187 13.408 19.008C13.856 18.1973 14.08 17.248 14.08 16.16C14.08 15.0507 13.856 14.1013 13.408 13.312C12.96 12.5013 12.352 11.8827 11.584 11.456C10.8373 11.0293 9.984 10.816 9.024 10.816C8.064 10.816 7.2 11.0293 6.432 11.456C5.664 11.8827 5.056 12.5013 4.608 13.312C4.16 14.1013 3.936 15.0507 3.936 16.16C3.936 17.248 4.16 18.1973 4.608 19.008C5.056 19.8187 5.664 20.4373 6.432 20.864C7.2 21.2907 8.064 21.504 9.024 21.504Z" fill="#F1FE42"/>
<path fill-rule="evenodd" clip-rule="evenodd" d="M5.664 23.968C6.816 24.608 8.08533 24.928 9.472 24.928C11.1573 24.928 12.64 24.5653 13.92 23.84C15.2213 23.1147 16.2453 22.1013 16.992 20.8C17.76 19.4773 18.144 17.9307 18.144 16.16C18.144 14.3893 17.76 12.8533 16.992 11.552C16.2453 10.2507 15.2213 9.23733 13.92 8.512C12.64 7.78667 11.1573 7.424 9.472 7.424C8.02133 7.424 6.73067 7.744 5.6 8.384C4.91705 8.75769 4.31972 9.25202 3.808 9.86699V7.616H0V30.912H4V22.6197C4.48675 23.1662 5.04142 23.6156 5.664 23.968ZM4 20.736L3.68 16.192L3.808 11.648V9.86699C3.79023 9.88835 3.77256 9.90985 3.755 9.9315C3.441 10.3185 3.16 10.752 2.912 11.232C2.272 12.512 1.952 14.1547 1.952 16.16C1.952 18.144 2.28267 19.7867 2.944 21.088C3.25077 21.6632 3.60277 22.1738 4 22.6197V20.736ZM11.584 20.864C10.8373 21.2907 9.984 21.504 9.024 21.504C8.064 21.504 7.2 21.2907 6.432 20.864C5.664 20.4373 5.056 19.8187 4.608 19.008C4.16 18.1973 3.936 17.248 3.936 16.16C3.936 15.0507 4.16 14.1013 4.608 13.312C5.056 12.5013 5.664 11.8827 6.432 11.456C7.2 11.0293 8.064 10.816 9.024 10.816C9.984 10.816 10.8373 11.0293 11.584 11.456C12.352 11.8827 12.96 12.5013 13.408 13.312C13.856 14.1013 14.08 15.0507 14.08 16.16C14.08 17.248 13.856 18.1973 13.408 19.008C12.96 19.8187 12.352 20.4373 11.584 20.864ZM25.7455 7.616H21.9375V24.704H25.9375V16.416C25.9375 14.6667 26.3855 13.3547 27.2815 12.48C28.1775 11.584 29.3828 11.136 30.8975 11.136C31.0468 11.136 31.1962 11.1467 31.3455 11.168C31.4948 11.168 31.6548 11.1893 31.8255 11.232V7.424C30.1828 7.424 28.8068 7.72267 27.6975 8.32C26.887 8.76497 26.2363 9.36384 25.7455 10.1166V7.616ZM39.2188 7.616H35.2188V24.704H39.2188V7.616ZM35.3788 4.096C35.8694 4.56533 36.4881 4.8 37.2348 4.8C38.0028 4.8 38.6214 4.56533 39.0908 4.096C39.5601 3.60533 39.7948 3.008 39.7948 2.304C39.7948 1.64267 39.5494 1.09867 39.0588 0.671999C38.5894 0.223999 37.9814 0 37.2348 0C36.4881 0 35.8694 0.234666 35.3788 0.703998C34.9094 1.152 34.6748 1.71733 34.6748 2.4C34.6748 3.06133 34.9094 3.62667 35.3788 4.096ZM57.8128 8.224C56.7461 7.69067 55.5301 7.424 54.1648 7.424C52.6714 7.424 51.3488 7.72267 50.1968 8.32C49.4361 8.70753 48.7961 9.21093 48.2768 9.83021V7.616H44.4688V24.704H48.4688V16.064C48.4688 14.912 48.6608 13.9627 49.0448 13.216C49.4501 12.448 50.0154 11.872 50.7408 11.488C51.4661 11.104 52.2981 10.912 53.2368 10.912C54.5168 10.912 55.5088 11.2853 56.2128 12.032C56.9381 12.7787 57.3008 13.9093 57.3008 15.424V24.704H61.3008V14.912C61.3008 13.184 60.9914 11.776 60.3728 10.688C59.7541 9.57867 58.9008 8.75733 57.8128 8.224ZM68.455 23.488C69.479 24.448 70.9297 24.928 72.807 24.928C73.5323 24.928 74.2363 24.832 74.919 24.64C75.6017 24.448 76.1777 24.16 76.647 23.776L75.527 20.928C74.9297 21.3973 74.183 21.632 73.287 21.632C72.5403 21.632 71.9537 21.408 71.527 20.96C71.1217 20.512 70.919 19.8827 70.919 19.072V10.944H75.495V7.744H70.919V3.84H66.919V7.744H64.103V10.944H66.919V19.168C66.919 21.0667 67.431 22.5067 68.455 23.488ZM81.0895 24.384C82.4122 24.7467 83.7882 24.928 85.2175 24.928C86.8175 24.928 88.1935 24.7147 89.3455 24.288C90.4975 23.84 91.3828 23.2213 92.0015 22.432C92.6415 21.6427 92.9615 20.7147 92.9615 19.648C92.9615 18.688 92.7695 17.9093 92.3855 17.312C92.0015 16.7147 91.4895 16.256 90.8495 15.936C90.2308 15.5947 89.5482 15.328 88.8015 15.136C88.0548 14.944 87.2975 14.8053 86.5295 14.72C85.7828 14.6133 85.1002 14.4853 84.4815 14.336C83.8628 14.1867 83.3615 13.984 82.9775 13.728C82.5935 13.472 82.4015 13.088 82.4015 12.576C82.4015 12.0213 82.6895 11.5627 83.2655 11.2C83.8628 10.8373 84.7695 10.656 85.9855 10.656C86.7962 10.656 87.6068 10.752 88.4175 10.944C89.2495 11.1147 90.0708 11.4453 90.8815 11.936L92.4175 8.896C91.6495 8.42667 90.6788 8.064 89.5055 7.808C88.3322 7.552 87.1695 7.424 86.0175 7.424C84.4815 7.424 83.1482 7.648 82.0175 8.096C80.9082 8.52267 80.0442 9.14133 79.4255 9.952C78.8068 10.7413 78.4975 11.68 78.4975 12.768C78.4975 13.7493 78.6895 14.5387 79.0735 15.136C79.4575 15.7333 79.9588 16.2133 80.5775 16.576C81.1962 16.9173 81.8788 17.184 82.6255 17.376C83.3935 17.5467 84.1508 17.6853 84.8975 17.792C85.6655 17.8987 86.3588 18.016 86.9775 18.144C87.5962 18.272 88.0975 18.464 88.4815 18.72C88.8655 18.9547 89.0575 19.3067 89.0575 19.776C89.0575 20.352 88.7695 20.8107 88.1935 21.152C87.6388 21.4933 86.7322 21.664 85.4735 21.664C84.4068 21.664 83.3402 21.504 82.2735 21.184C81.2068 20.864 80.2895 20.4587 79.5215 19.968L77.9855 23.008C78.7535 23.5413 79.7882 24 81.0895 24.384ZM98.4862 23.488C99.51 24.448 100.961 24.928 102.838 24.928C103.564 24.928 104.268 24.832 104.95 24.64C105.633 24.448 106.209 24.16 106.678 23.776L105.558 20.928C104.961 21.3973 104.214 21.632 103.318 21.632C102.572 21.632 101.985 21.408 101.558 20.96C101.153 20.512 100.95 19.8827 100.95 19.072V10.944H105.526V7.744H100.95V3.84H96.9503V7.744H94.1343V10.944H96.9503V19.168C96.9503 21.0667 97.4623 22.5067 98.4862 23.488ZM112.414 23.808C113.78 24.5547 115.337 24.928 117.086 24.928C118.857 24.928 120.425 24.5547 121.79 23.808C123.177 23.04 124.254 21.9947 125.022 20.672C125.812 19.3493 126.206 17.8453 126.206 16.16C126.206 14.432 125.812 12.9173 125.022 11.616C124.254 10.3147 123.177 9.29067 121.79 8.544C120.425 7.79733 118.857 7.424 117.086 7.424C115.337 7.424 113.78 7.79733 112.414 8.544C111.049 9.29067 109.972 10.3253 109.182 11.648C108.393 12.9493 107.998 14.4533 107.998 16.16C107.998 17.8453 108.393 19.3493 109.182 20.672C109.972 21.9947 111.049 23.04 112.414 23.808ZM119.71 20.864C118.942 21.2907 118.068 21.504 117.086 21.504C116.126 21.504 115.262 21.2907 114.494 20.864C113.748 20.4373 113.15 19.8187 112.702 19.008C112.254 18.1973 112.03 17.248 112.03 16.16C112.03 15.0507 112.254 14.1013 112.702 13.312C113.15 12.5013 113.748 11.8827 114.494 11.456C115.262 11.0293 116.137 10.816 117.118 10.816C118.078 10.816 118.942 11.0293 119.71 11.456C120.478 11.8827 121.076 12.5013 121.502 13.312C121.95 14.1013 122.174 15.0507 122.174 16.16C122.174 17.248 121.95 18.1973 121.502 19.008C121.076 19.8187 120.478 20.4373 119.71 20.864ZM133.839 7.616H130.031V24.704H134.031V16.416C134.031 14.6667 134.479 13.3547 135.375 12.48C136.271 11.584 137.477 11.136 138.991 11.136C139.141 11.136 139.29 11.1467 139.439 11.168C139.589 11.168 139.749 11.1893 139.919 11.232V7.424C138.277 7.424 136.901 7.72267 135.791 8.32C134.981 8.76497 134.33 9.36384 133.839 10.1166V7.616ZM142.85 30.72C143.682 30.9973 144.514 31.136 145.346 31.136C146.306 31.136 147.18 30.9867 147.97 30.688C148.78 30.3893 149.506 29.8667 150.146 29.12C150.807 28.3733 151.404 27.36 151.938 26.08L159.938 7.616H156.098L150.688 20.2565L145.314 7.616H141.153L148.624 24.7574L148.322 25.44C147.938 26.2933 147.522 26.9013 147.074 27.264C146.626 27.6267 146.039 27.808 145.314 27.808C144.78 27.808 144.258 27.7013 143.746 27.488C143.234 27.2747 142.775 26.9867 142.369 26.624L140.769 29.568C141.324 30.0587 142.018 30.4427 142.85 30.72Z" fill="#2B2B2B"/>
<path d="M1.952 16.16C1.952 18.144 2.28267 19.7867 2.944 21.088C3.25077 21.6632 3.60277 22.1738 4 22.6197V20.736L3.68 16.192L3.808 11.648V9.86699C3.79023 9.88835 3.77256 9.90985 3.755 9.9315C3.441 10.3185 3.16 10.752 2.912 11.232C2.272 12.512 1.952 14.1547 1.952 16.16Z" fill="#2B2B2B"/>
</svg>
